<?xml version="1.0" standalone="no"?>
<!DOCTYPE svg PUBLIC "-//W3C//DTD SVG 20010904//EN"
 "http://www.w3.org/TR/2001/REC-SVG-20010904/DTD/svg10.dtd">
<svg version="1.0" xmlns="http://www.w3.org/2000/svg"
 width="292.000000pt" height="292.000000pt" viewBox="0 0 292.000000 292.000000"
 preserveAspectRatio="xMidYMid meet">
<metadata>
Created by potrace 1.11, written by Peter Selinger 2001-2013
</metadata>
<g transform="translate(0.000000,292.000000) scale(0.100000,-0.100000)"
fill="#000000" stroke="none">
<path d="M1225 2410 c-205 -44 -376 -138 -519 -286 -377 -386 -374 -1010 5
-1394 129 -130 300 -228 475 -272 128 -32 350 -32 478 0 102 26 254 94 329
148 l51 37 158 -23 c236 -34 345 -16 447 76 127 114 129 261 6 533 -80 178
-93 271 -55 373 28 75 109 177 204 259 44 39 84 80 89 91 9 25 -14 64 -43 73
-30 10 -61 -13 -175 -129 -152 -155 -207 -264 -208 -411 -1 -95 16 -158 83
-310 89 -202 101 -298 46 -370 -43 -56 -93 -69 -260 -63 -78 3 -148 8 -155 12
-8 5 0 21 23 49 272 335 295 819 55 1177 -66 97 -166 202 -255 266 -85 61
-233 129 -334 155 -125 31 -326 35 -445 9z m321 -71 c93 -44 153 -133 162
-235 13 -168 -113 -304 -283 -304 -235 0 -365 255 -230 450 74 107 231 147
351 89z m-559 -327 c180 -92 211 -332 62 -466 -184 -166 -472 -37 -471 210 0
125 81 236 202 275 45 15 162 4 207 -19z m1128 0 c98 -50 154 -145 155 -257 0
-257 -309 -382 -483 -196 -25 27 -53 65 -61 85 -64 152 13 323 171 382 53 20
167 13 218 -14z m-604 -427 c15 -8 41 -32 56 -52 24 -31 28 -46 28 -103 0 -57
-4 -72 -28 -103 -37 -49 -81 -71 -142 -71 -116 0 -193 98 -171 217 9 46 62
105 111 123 45 16 102 11 146 -11z m-558 -211 c26 -9 69 -36 96 -60 149 -134
118 -371 -62 -466 -59 -32 -194 -32 -252 -1 -181 97 -213 333 -63 468 79 70
183 92 281 59z m1124 1 c65 -19 139 -85 169 -150 31 -66 33 -170 3 -235 -25
-55 -80 -114 -134 -143 -58 -32 -192 -31 -252 1 -102 54 -158 146 -157 257 1
195 182 326 371 270z m-777 -592 c69 -18 187 -46 262 -61 l137 -27 -18 -41
c-23 -52 -80 -107 -140 -136 -63 -30 -167 -31 -232 -2 -98 45 -159 136 -167
248 -5 65 -4 69 14 61 10 -4 75 -23 144 -42z"/>
<path d="M1320 2084 c-74 -15 -130 -36 -130 -50 0 -55 65 -138 135 -170 122
-57 270 0 322 123 21 53 17 61 -39 78 -52 16 -239 28 -288 19z"/>
<path d="M937 1870 c-70 -76 -126 -178 -152 -274 -17 -67 -15 -71 47 -81 89
-15 204 49 247 139 25 51 28 140 5 194 -15 36 -60 92 -75 92 -4 0 -36 -31 -72
-70z"/>
<path d="M1807 1913 c-59 -62 -75 -178 -36 -259 43 -90 158 -154 247 -139 61
10 63 13 46 80 -25 98 -81 199 -151 275 -36 39 -68 70 -72 70 -4 0 -19 -12
-34 -27z"/>
<path d="M803 1339 c-30 -9 -32 -12 -26 -42 20 -109 95 -246 182 -331 l51 -50
26 25 c64 58 84 182 43 265 -28 59 -88 110 -150 128 -59 18 -79 18 -126 5z"/>
<path d="M1912 1331 c-100 -35 -162 -121 -162 -227 0 -67 23 -126 65 -164 l27
-25 62 66 c71 74 115 147 144 234 37 113 37 113 -5 124 -51 15 -69 13 -131 -8z"/>
</g>
</svg>
